<?xml version="1.0" encoding="UTF-8"?>
<svg width="55px" height="64px" viewBox="0 0 55 64" version="1.1" xmlns="http://www.w3.org/2000/svg" xmlns:xlink="http://www.w3.org/1999/xlink">
    <!-- Generator: Sketch 52.3 (67297) - http://www.bohemiancoding.com/sketch -->
    <title>android-logo</title>
    <desc>Created with Sketch.</desc>
    <g id="Page-1" stroke="none" stroke-width="1" fill="none" fill-rule="evenodd">
        <g id="landing-page-pro" transform="translate(-1382.000000, -3541.000000)" fill="#FF005D">
            <g id="android-logo" transform="translate(1382.000000, 3541.000000)">
                <path d="M4.01563657,20.8335178 L3.8508912,20.8335178 C1.73899306,20.8335178 0.0170601852,22.5496285 0.0170601852,24.6422767 L0.0170601852,41.2249802 C0.0170601852,43.3258498 1.73899306,45.0363953 3.8508912,45.0363953 L4.0184375,45.0363953 C6.13033565,45.0363953 7.85226852,43.3202846 7.85226852,41.2249802 L7.85226852,24.6421502 C7.84946759,22.5496285 6.12486111,20.8335178 4.01563657,20.8335178 Z" id="Path"></path>
                <path d="M9.68674769,47.6256126 C9.68674769,49.5518103 11.2713079,51.1205692 13.2101852,51.1205692 L16.9753935,51.1205692 L16.9753935,60.0776601 C16.9753935,62.1811858 18.7028009,63.8918577 20.8092245,63.8918577 L20.9739699,63.8918577 C23.088669,63.8918577 24.8132755,62.1785296 24.8132755,60.0776601 L24.8132755,51.1205692 L30.0751968,51.1205692 L30.0751968,60.0776601 C30.0751968,62.1811858 31.8080787,63.8918577 33.9145023,63.8918577 L34.0765741,63.8918577 C36.1911458,63.8918577 37.9130787,62.1785296 37.9130787,60.0776601 L37.9130787,51.1205692 L41.6809606,51.1205692 C43.617037,51.1205692 45.2017245,49.5518103 45.2017245,47.6256126 L45.2017245,21.4418972 L9.68674769,21.4418972 L9.68674769,47.6256126 Z" id="Path"></path>
                <path d="M36.2899421,5.56306719 L39.2806944,0.976822134 C39.4729398,0.687557312 39.3877662,0.292047431 39.0939236,0.103715415 C38.8028819,-0.0872727273 38.4046412,-0.00809486166 38.2150694,0.289264822 L35.1145718,5.03386561 C32.7885301,4.08714625 30.190544,3.55516206 27.4469097,3.55516206 C24.7006019,3.55516206 22.1080903,4.08714625 19.7765741,5.03386561 L16.6815509,0.289264822 C16.4921065,-0.00809486166 16.0910648,-0.0872727273 15.7972222,0.103715415 C15.5033796,0.291920949 15.418206,0.687557312 15.6104514,0.976822134 L18.6038773,5.56306719 C13.2073843,8.19048221 9.56859954,13.1423874 9.56859954,18.8227036 C9.56859954,19.1719209 9.590625,19.5156996 9.62079861,19.8566957 L45.2756944,19.8566957 C45.3058681,19.5156996 45.3250926,19.1719209 45.3250926,18.8227036 C45.3252199,13.1423874 41.6836343,8.19048221 36.2899421,5.56306719 Z M19.1806134,13.7753043 C18.2331366,13.7753043 17.4641551,13.0167905 17.4641551,12.0728538 C17.4641551,11.128917 18.2331366,10.3730593 19.1806134,10.3730593 C20.1335648,10.3730593 20.8970718,11.1287905 20.8970718,12.0728538 C20.8970718,13.016917 20.1280903,13.7753043 19.1806134,13.7753043 Z M35.7105324,13.7753043 C34.7630556,13.7753043 33.9940741,13.0167905 33.9940741,12.0728538 C33.9940741,11.128917 34.7630556,10.3730593 35.7105324,10.3730593 C36.6606829,10.3730593 37.4241898,11.1287905 37.4241898,12.0728538 C37.4241898,13.0167905 36.6606829,13.7753043 35.7105324,13.7753043 Z" id="Shape" fill-rule="nonzero"></path>
                <path d="M51.0374537,20.8335178 L50.8781829,20.8335178 C48.7662847,20.8335178 47.0388773,22.5496285 47.0388773,24.6422767 L47.0388773,41.2249802 C47.0388773,43.3258498 48.7690856,45.0363953 50.8781829,45.0363953 L51.0402546,45.0363953 C53.1548264,45.0363953 54.8740856,43.3202846 54.8740856,41.2249802 L54.8740856,24.6421502 C54.8740856,22.5496285 53.1493519,20.8335178 51.0374537,20.8335178 Z" id="Path"></path>
            </g>
        </g>
    </g>
</svg>